<?xml version="1.0" encoding="utf-8"?>
<!-- Generator: Adobe Illustrator 25.4.1, SVG Export Plug-In . SVG Version: 6.00 Build 0)  -->
<svg version="1.1" id="圖層_1" xmlns="http://www.w3.org/2000/svg" xmlns:xlink="http://www.w3.org/1999/xlink" x="0px" y="0px"
	 viewBox="0 0 301.5 51" style="enable-background:new 0 0 301.5 51;" xml:space="preserve">
<style type="text/css">
	.st0{fill:none;}
	.st1{fill:#FF3313;}
</style>
<g id="Logo_標誌橫式">
	<rect x="-21.1" y="-97.6" class="st0" width="288.7" height="117.3"/>
	<g>
		<path class="st1" d="M31.6,45.6c-3.5,3.5-7.7,5.4-13.3,5.4c-5.6,0-9.9-1.9-13.4-5.4C-0.1,40.6,0,34,0,25.5C0,17-0.1,10.4,4.9,5.4
			C8.3,1.9,12.6,0,18.3,0c5.6,0,9.9,1.9,13.3,5.4c5,5,4.9,11.5,4.9,20.1C36.6,34,36.6,40.6,31.6,45.6z M24.5,11.3
			c-1.4-1.6-3.5-2.6-6.2-2.6c-2.6,0-4.9,1-6.3,2.6c-1.9,2.1-2.4,4.7-2.4,14.2c0,9.5,0.5,12.2,2.4,14.2c1.4,1.6,3.6,2.6,6.3,2.6
			c2.6,0,4.8-1,6.2-2.6c1.9-2.1,2.4-4.7,2.4-14.2C26.9,16,26.3,13.3,24.5,11.3z"/>
		<path class="st1" d="M62.4,50.8c-10.1,0-18.2-6.9-18.2-17.4V2.8c0-1.1,0.9-2,2-2h5.6c1.1,0,2,0.9,2,2v30.3c0,5.7,3.3,9.1,8.5,9.1
			s8.6-3.4,8.6-9.1V2.8c0-1.1,0.9-2,2-2h5.6c1.1,0,2,0.9,2,2v30.7C80.6,43.9,72.6,50.8,62.4,50.8z"/>
		<path class="st1" d="M115.7,49.1l-9-18.3c-0.1-0.2-0.3-0.3-0.5-0.3h-6c-0.4,0-0.6,0.3-0.6,0.6v17.1c0,1.1-0.9,2-2,2H92
			c-1.1,0-2-0.9-2-2V2.8c0-1.1,0.9-2,2-2h17.4c10.1,0,16.1,6.9,16.1,15.1c0,6.7-4,11-8.6,12.8c-0.2,0.1-0.3,0.4-0.2,0.6l9.3,18
			c0.7,1.3-0.3,2.9-1.8,2.9h-6.6C116.7,50.2,116,49.8,115.7,49.1z M108.7,9.4h-8.2c-0.5,0-0.9,0.4-0.9,0.9v11.4
			c0,0.5,0.4,0.9,0.9,0.9h8.2c4.2,0,7-2.7,7-6.5C115.8,12.1,113,9.4,108.7,9.4z"/>
		<path class="st1" d="M148.6,50.8c-6.7,0-11.9-1.3-16.5-5c-0.9-0.8-1-2.1-0.1-3l3.4-3.4c0.7-0.7,1.8-0.8,2.7-0.2
			c3,2.2,6.7,3,10.6,3c5.7,0,8.8-2.3,8.8-6.3c0-1.7-0.5-3.2-1.5-4.2c-1-0.9-2.1-1.4-4.4-1.7l-6-0.8c-4.2-0.6-7.4-1.9-9.6-4.1
			c-2.4-2.4-3.5-5.6-3.5-9.7c0-8.8,6.5-15.2,17.2-15.2c5.9,0,10.4,1.3,14.3,4.3c1,0.7,1,2.2,0.2,3l-3.3,3.2
			c-0.7,0.7-1.8,0.8-2.6,0.2c-2.8-2-6-2.3-8.8-2.3c-5.1,0-7.6,3-7.6,6.4c0,1.3,0.4,2.6,1.5,3.5c1,0.9,2.6,1.7,4.6,1.9l5.8,0.8
			c4.5,0.6,7.4,1.9,9.5,3.8c2.6,2.5,3.8,6.1,3.8,10.5C167,45.2,159,50.8,148.6,50.8z"/>
		<path class="st1" d="M205,45.6c-3.5,3.5-7.7,5.4-13.3,5.4c-5.6,0-9.9-1.9-13.4-5.4c-5-5-4.9-11.5-4.9-20.1
			c0-8.5-0.1-15.1,4.9-20.1C181.7,1.9,186,0,191.6,0c5.6,0,9.9,1.9,13.3,5.4c5,5,4.9,11.5,4.9,20.1C209.9,34,210,40.6,205,45.6z
			 M197.8,11.3c-1.4-1.6-3.5-2.6-6.2-2.6c-2.6,0-4.9,1-6.3,2.6c-1.9,2.1-2.4,4.7-2.4,14.2c0,9.5,0.5,12.2,2.4,14.2
			c1.4,1.6,3.6,2.6,6.3,2.6c2.6,0,4.8-1,6.2-2.6c1.9-2.1,2.4-4.7,2.4-14.2C200.2,16,199.7,13.3,197.8,11.3z"/>
		<path class="st1" d="M246.8,49.4l-18.9-29.3c0-0.1-0.2,0-0.2,0v28.1c0,1.1-0.9,2-2,2h-5.6c-1.1,0-2-0.9-2-2V2.8c0-1.1,0.9-2,2-2
			h5.6c0.6,0,1.2,0.3,1.5,0.8l18.9,29.2c0,0.1,0.2,0,0.2,0v-28c0-1.1,0.9-2,2-2h5.6c1.1,0,2,0.9,2,2v45.5c0,1.1-0.9,2-2,2h-5.6
			C247.7,50.2,247.1,49.9,246.8,49.4z"/>
		<path class="st1" d="M296.7,45.2c-3.8,3.9-8.4,5.6-14,5.6c-5.3,0-9.7-1.8-13.3-5.4c-2.2-2.2-3.5-4.7-4-7.4
			c-0.6-2.8-0.8-7.1-0.8-12.5c0-5.4,0.3-9.7,0.8-12.5c0.6-2.8,1.9-5.3,4-7.4c3.6-3.6,8.1-5.4,13.3-5.4c11.9,0,16.5,6,18.2,13.6
			c0.3,1.2-0.6,2.3-1.8,2.3h-6.1c-0.8,0-1.6-0.5-1.8-1.2c-0.9-4-3.9-6-8.3-6c-2.6,0-4.9,0.9-6.4,2.6c-1.8,2.3-2.4,4.3-2.4,14.1
			c0,9.7,0.4,11.8,2.4,14.1c1.5,1.7,3.5,2.6,6.2,2.6c2.8,0,5.3-0.7,6.9-2.8c2.6-3.5,2.1-8.7,2.1-8.7c-1.7,0-6.9,0-6.9,0
			c-1.1,0-2-0.9-2-2v-4c0-1.1,0.9-2,2-2h14.8c1.1,0,1.9,0.9,1.9,1.9v5.3C301.5,37.2,300.2,41.6,296.7,45.2z"/>
	</g>
</g>
</svg>
